<svg xmlns="http://www.w3.org/2000/svg" viewBox="0 0 240 320" role="img" aria-label="Stylized mushaf page frame">
  <rect width="240" height="320" rx="14" fill="#111729"/>
  <rect x="14" y="14" width="212" height="292" rx="8" fill="none" stroke="rgba(212,165,116,0.55)" stroke-width="1"/>
  <rect x="22" y="22" width="196" height="276" rx="5" fill="none" stroke="rgba(212,165,116,0.25)" stroke-width="0.6"/>
  <g stroke="rgba(212,165,116,0.18)" stroke-width="0.5">
    <line x1="34" y1="56"  x2="206" y2="56"/>
    <line x1="34" y1="78"  x2="206" y2="78"/>
    <line x1="34" y1="100" x2="206" y2="100"/>
    <line x1="34" y1="122" x2="206" y2="122"/>
    <line x1="34" y1="144" x2="206" y2="144"/>
    <line x1="34" y1="166" x2="206" y2="166"/>
    <line x1="34" y1="188" x2="206" y2="188"/>
    <line x1="34" y1="210" x2="206" y2="210"/>
    <line x1="34" y1="232" x2="206" y2="232"/>
    <line x1="34" y1="254" x2="206" y2="254"/>
    <line x1="34" y1="276" x2="206" y2="276"/>
  </g>
  <circle cx="120" cy="36" r="6" fill="none" stroke="rgba(212,165,116,0.7)"/>
</svg>
